<svg xmlns="http://www.w3.org/2000/svg" width="640" height="128" class="svgbob"><style>.svgbob line, .svgbob path, .svgbob circle, .svgbob rect, .svgbob polygon {
    stroke: black;
    stroke-width: 2;
    stroke-opacity: 1;
    fill-opacity: 1;
    stroke-linecap: round;
    stroke-linejoin: miter;
}
.svgbob text {
    white-space: pre;
    fill: black;
    font-family: Iosevka Fixed, monospace;
    font-size: 14px;
}
.svgbob rect.backdrop {
    stroke: none;
    fill: white;
}
.svgbob .broken {
    stroke-dasharray: 8;
}
.svgbob .filled {
    fill: black;
}
.svgbob .bg_filled {
    fill: white;
    stroke-width: 1;
}
.svgbob .nofill {
    fill: white;
}
.svgbob .end_marked_arrow {
    marker-end: url(#arrow);
}
.svgbob .start_marked_arrow {
    marker-start: url(#arrow);
}
.svgbob .end_marked_diamond {
    marker-end: url(#diamond);
}
.svgbob .start_marked_diamond {
    marker-start: url(#diamond);
}
.svgbob .end_marked_circle {
    marker-end: url(#circle);
}
.svgbob .start_marked_circle {
    marker-start: url(#circle);
}
.svgbob .end_marked_open_circle {
    marker-end: url(#open_circle);
}
.svgbob .start_marked_open_circle {
    marker-start: url(#open_circle);
}
.svgbob .end_marked_big_open_circle {
    marker-end: url(#big_open_circle);
}
.svgbob .start_marked_big_open_circle {
    marker-start: url(#big_open_circle);
}<!--separator--></style><defs><marker id="arrow" viewBox="-2 -2 8 8" refX="4" refY="2" markerWidth="7" markerHeight="7" orient="auto-start-reverse"><polygon points="0,0 0,4 4,2 0,0"></polygon></marker><marker id="diamond" viewBox="-2 -2 8 8" refX="4" refY="2" markerWidth="7" markerHeight="7" orient="auto-start-reverse"><polygon points="0,2 2,0 4,2 2,4 0,2"></polygon></marker><marker id="circle" viewBox="0 0 8 8" refX="4" refY="4" markerWidth="7" markerHeight="7" orient="auto-start-reverse"><circle cx="4" cy="4" r="2" class="filled"></circle></marker><marker id="open_circle" viewBox="0 0 8 8" refX="4" refY="4" markerWidth="7" markerHeight="7" orient="auto-start-reverse"><circle cx="4" cy="4" r="2" class="bg_filled"></circle></marker><marker id="big_open_circle" viewBox="0 0 8 8" refX="4" refY="4" markerWidth="7" markerHeight="7" orient="auto-start-reverse"><circle cx="4" cy="4" r="3" class="bg_filled"></circle></marker></defs><rect class="backdrop" x="0" y="0" width="640" height="128"></rect><text x="18" y="12" >*</text><path d="M 48,0 A 16,16 0,0,1 48,16" class="nofill"></path><text x="66" y="60" >)</text><line x1="120" y1="16" x2="112" y2="32" class="solid"></line><path d="M 96,32 A 16,16 0,0,1 96,48" class="nofill"></path><path d="M 116,64 A 12,12 0,0,0 116,80" class="nofill"></path><text x="114" y="92" >'</text><line x1="336" y1="16" x2="328" y2="32" class="solid"></line><path d="M 312,32 A 16,16 0,0,1 312,48" class="nofill"></path><text x="322" y="60" >)</text><path d="M 376,0 A 16,16 0,0,0 376,16" class="nofill"></path><line x1="456" y1="16" x2="448" y2="32" class="solid"></line><path d="M 432,32 A 16,16 0,0,1 432,48" class="nofill"></path><path d="M 452,64 A 12,12 0,0,0 452,80" class="nofill"></path><text x="450" y="92" >'</text><line x1="616" y1="16" x2="608" y2="32" class="solid"></line><path d="M 592,32 A 16,16 0,0,1 592,48" class="nofill"></path><path d="M 160,16 A 16,16 0,0,0 160,32" class="nofill"></path><path d="M 164,64 A 12,12 0,0,0 164,80" class="nofill"></path><text x="178" y="76" >)</text><line x1="208" y1="88" x2="216" y2="88" class="solid"></line><path d="M 264,32 A 16,16 0,0,0 264,48" class="nofill"></path><text x="274" y="76" >)</text><line x1="264" y1="96" x2="272" y2="96" class="solid"></line><text x="274" y="92" >`</text><text x="274" y="108" >,</text><line x1="496" y1="88" x2="504" y2="88" class="solid"></line><g><path d="M 32,16 A 16,16 0,0,1 32,32" class="nofill"></path><path d="M 32,32 A 16,16 0,0,0 32,48" class="nofill"></path></g><g><line x1="64" y1="16" x2="56" y2="32" class="solid"></line><path d="M 56,32 A 16,16 0,0,0 56,48" class="nofill"></path><line x1="56" y1="48" x2="64" y2="48" class="solid"></line><path d="M 64,32 A 16,16 0,0,1 64,48" class="nofill"></path><path d="M 56,48 A 16,16 0,0,0 56,64" class="nofill"></path><path d="M 56,48 A 16,16 0,0,1 56,64" class="nofill"></path></g><g><path d="M 72,16 A 16,16 0,0,0 72,32" class="nofill"></path><path d="M 72,32 A 16,16 0,0,1 72,48" class="nofill"></path></g><g><path d="M 40,32 A 16,16 0,0,1 40,48" class="nofill"></path><path d="M 40,48 A 16,16 0,0,0 40,64" class="nofill"></path><line x1="40" y1="64" x2="48" y2="64" class="solid"></line></g><g><path d="M 20,48 A 12,12 0,0,0 20,64" class="nofill"></path><line x1="20" y1="64" x2="32" y2="64" class="solid"></line><line x1="20" y1="64" x2="20" y2="80" class="solid"></line><line x1="20" y1="80" x2="36" y2="80" class="solid"></line><line x1="36" y1="80" x2="36" y2="112" class="solid"></line><line x1="52" y1="80" x2="68" y2="80" class="solid"></line><line x1="68" y1="64" x2="68" y2="80" class="solid"></line><line x1="52" y1="80" x2="52" y2="112" class="solid"></line><line x1="36" y1="112" x2="52" y2="112" class="solid"></line></g><g><path d="M 104,0 A 16,16 0,0,1 104,16" class="nofill"></path><path d="M 104,16 A 16,16 0,0,0 104,32" class="nofill"></path><line x1="104" y1="32" x2="112" y2="48" class="solid"></line><path d="M 104,48 A 16,16 0,0,0 104,64" class="nofill"></path><line x1="104" y1="64" x2="112" y2="64" class="solid"></line><path d="M 112,48 A 16,16 0,0,1 112,64" class="nofill"></path><line x1="108" y1="64" x2="108" y2="84" class="solid"></line></g><g><path d="M 128,16 A 16,16 0,0,0 128,32" class="nofill"></path><path d="M 128,32 A 16,16 0,0,1 128,48" class="nofill"></path></g><g><path d="M 120,32 A 16,16 0,0,0 120,48" class="nofill"></path><path d="M 120,32 A 16,16 0,0,1 120,48" class="nofill"></path><line x1="120" y1="48" x2="128" y2="64" class="solid"></line><line x1="120" y1="80" x2="128" y2="80" class="solid"></line><path d="M 128,64 A 16,16 0,0,1 128,80" class="nofill"></path><line x1="128" y1="80" x2="132" y2="88" class="solid"></line><line x1="132" y1="88" x2="132" y2="112" class="solid"></line><line x1="116" y1="96" x2="116" y2="112" class="solid"></line><line x1="116" y1="112" x2="132" y2="112" class="solid"></line></g><g><path d="M 92,48 A 12,12 0,0,0 92,64" class="nofill"></path><line x1="92" y1="64" x2="92" y2="112" class="solid"></line><line x1="92" y1="112" x2="108" y2="112" class="solid"></line><line x1="108" y1="96" x2="108" y2="112" class="solid"></line></g><g><path d="M 320,0 A 16,16 0,0,1 320,16" class="nofill"></path><path d="M 320,16 A 16,16 0,0,0 320,32" class="nofill"></path><line x1="320" y1="32" x2="328" y2="48" class="solid"></line><path d="M 328,48 A 16,16 0,0,1 328,64" class="nofill"></path></g><g><path d="M 344,16 A 16,16 0,0,0 344,32" class="nofill"></path><path d="M 344,32 A 16,16 0,0,1 344,48" class="nofill"></path><line x1="344" y1="48" x2="336" y2="64" class="solid"></line></g><g><path d="M 336,32 A 16,16 0,0,0 336,48" class="nofill"></path><path d="M 336,32 A 16,16 0,0,1 336,48" class="nofill"></path></g><g><path d="M 308,48 A 12,12 0,0,0 308,64" class="nofill"></path><line x1="308" y1="64" x2="324" y2="64" class="solid"></line><line x1="308" y1="64" x2="308" y2="88" class="solid"></line><line x1="324" y1="64" x2="324" y2="80" class="solid"></line><line x1="324" y1="80" x2="340" y2="80" class="solid"></line><line x1="308" y1="88" x2="320" y2="112" class="solid"></line><line x1="328" y1="96" x2="340" y2="96" class="solid"></line><line x1="340" y1="80" x2="340" y2="112" class="solid"></line><line x1="320" y1="112" x2="340" y2="112" class="solid"></line></g><g><path d="M 440,0 A 16,16 0,0,1 440,16" class="nofill"></path><path d="M 440,16 A 16,16 0,0,0 440,32" class="nofill"></path><line x1="440" y1="32" x2="448" y2="48" class="solid"></line><path d="M 440,48 A 16,16 0,0,0 440,64" class="nofill"></path><line x1="440" y1="64" x2="448" y2="64" class="solid"></line><path d="M 448,48 A 16,16 0,0,1 448,64" class="nofill"></path><line x1="444" y1="64" x2="444" y2="84" class="solid"></line></g><g><path d="M 464,16 A 16,16 0,0,0 464,32" class="nofill"></path><path d="M 464,32 A 16,16 0,0,1 464,48" class="nofill"></path></g><g><path d="M 456,32 A 16,16 0,0,0 456,48" class="nofill"></path><path d="M 456,32 A 16,16 0,0,1 456,48" class="nofill"></path><line x1="456" y1="48" x2="464" y2="64" class="solid"></line><line x1="456" y1="80" x2="464" y2="80" class="solid"></line><path d="M 464,64 A 16,16 0,0,1 464,80" class="nofill"></path><line x1="464" y1="80" x2="468" y2="88" class="solid"></line><line x1="468" y1="88" x2="468" y2="112" class="solid"></line><line x1="452" y1="96" x2="452" y2="112" class="solid"></line><line x1="452" y1="112" x2="468" y2="112" class="solid"></line></g><g><path d="M 428,48 A 12,12 0,0,0 428,64" class="nofill"></path><line x1="428" y1="64" x2="428" y2="112" class="solid"></line><line x1="428" y1="112" x2="444" y2="112" class="solid"></line><line x1="444" y1="96" x2="444" y2="112" class="solid"></line></g><g><path d="M 600,0 A 16,16 0,0,1 600,16" class="nofill"></path><path d="M 600,16 A 16,16 0,0,0 600,32" class="nofill"></path><line x1="600" y1="32" x2="608" y2="48" class="solid"></line><path d="M 600,48 A 16,16 0,0,0 600,64" class="nofill"></path><line x1="600" y1="64" x2="608" y2="64" class="solid"></line><path d="M 608,48 A 16,16 0,0,1 608,64" class="nofill"></path><line x1="604" y1="64" x2="604" y2="80" class="solid"></line></g><g><path d="M 624,16 A 16,16 0,0,0 624,32" class="nofill"></path><path d="M 624,32 A 16,16 0,0,1 624,48" class="nofill"></path></g><g><path d="M 616,32 A 16,16 0,0,0 616,48" class="nofill"></path><path d="M 616,32 A 16,16 0,0,1 616,48" class="nofill"></path><line x1="616" y1="48" x2="624" y2="64" class="solid"></line><path d="M 588,48 A 12,12 0,0,0 588,64" class="nofill"></path><line x1="588" y1="64" x2="588" y2="112" class="solid"></line><line x1="588" y1="112" x2="624" y2="112" class="solid"></line><path d="M 616,64 A 16,16 0,0,0 616,80" class="nofill"></path><line x1="616" y1="80" x2="624" y2="80" class="solid"></line><path d="M 624,64 A 16,16 0,0,1 624,80" class="nofill"></path><line x1="624" y1="80" x2="616" y2="96" class="solid"></line><line x1="616" y1="96" x2="624" y2="112" class="solid"></line><line x1="608" y1="80" x2="600" y2="96" class="solid"></line><line x1="600" y1="96" x2="608" y2="112" class="solid"></line></g><g><path d="M 152,32 A 16,16 0,0,1 152,48" class="nofill"></path><path d="M 152,48 A 16,16 0,0,0 152,64" class="nofill"></path></g><g><path d="M 168,32 A 16,16 0,0,0 168,48" class="nofill"></path><line x1="168" y1="48" x2="176" y2="64" class="solid"></line></g><g><path d="M 160,48 A 16,16 0,0,0 160,64" class="nofill"></path><path d="M 160,48 A 16,16 0,0,1 160,64" class="nofill"></path><path d="M 160,64 A 16,16 0,0,0 160,80" class="nofill"></path><line x1="160" y1="80" x2="162" y2="84" class="solid"></line><path d="M 162,84 A 8,8 0,0,0 168,88" class="nofill"></path></g><g><line x1="168" y1="80" x2="180" y2="80" class="solid"></line><line x1="148" y1="80" x2="148" y2="112" class="solid"></line><line x1="148" y1="112" x2="164" y2="112" class="solid"></line><line x1="164" y1="96" x2="180" y2="96" class="solid"></line><line x1="180" y1="80" x2="180" y2="96" class="solid"></line><line x1="164" y1="96" x2="164" y2="112" class="solid"></line></g><g><path d="M 224,16 A 16,16 0,0,0 224,32" class="nofill"></path><line x1="224" y1="32" x2="232" y2="48" class="solid"></line><path d="M 224,48 A 16,16 0,0,0 224,64" class="nofill"></path><line x1="224" y1="64" x2="232" y2="64" class="solid"></line><path d="M 232,48 A 16,16 0,0,1 232,64" class="nofill"></path></g><g><path d="M 208,32 A 16,16 0,0,1 208,48" class="nofill"></path><line x1="208" y1="48" x2="200" y2="64" class="solid"></line><path d="M 200,64 A 16,16 0,0,0 200,80" class="nofill"></path><line x1="200" y1="80" x2="208" y2="80" class="solid"></line><path d="M 208,64 A 16,16 0,0,1 208,80" class="nofill"></path><line x1="200" y1="80" x2="192" y2="96" class="solid"></line><line x1="192" y1="96" x2="200" y2="112" class="solid"></line><line x1="200" y1="112" x2="224" y2="112" class="solid"></line><line x1="216" y1="96" x2="232" y2="96" class="solid"></line><line x1="224" y1="80" x2="232" y2="96" class="solid"></line><line x1="232" y1="96" x2="224" y2="112" class="solid"></line></g><g><path d="M 216,32 A 16,16 0,0,1 216,48" class="nofill"></path><path d="M 216,48 A 16,16 0,0,0 216,64" class="nofill"></path><path d="M 216,64 A 16,16 0,0,1 216,80" class="nofill"></path></g><g><path d="M 280,16 A 16,16 0,0,1 280,32" class="nofill"></path><line x1="280" y1="32" x2="272" y2="48" class="solid"></line><path d="M 272,48 A 16,16 0,0,0 272,64" class="nofill"></path><line x1="272" y1="64" x2="280" y2="64" class="solid"></line><path d="M 280,48 A 16,16 0,0,1 280,64" class="nofill"></path></g><g><path d="M 288,32 A 16,16 0,0,0 288,48" class="nofill"></path><path d="M 288,48 A 16,16 0,0,1 288,64" class="nofill"></path></g><g><path d="M 256,48 A 16,16 0,0,1 256,64" class="nofill"></path><path d="M 256,64 A 16,16 0,0,0 256,80" class="nofill"></path><line x1="256" y1="80" x2="248" y2="96" class="solid"></line><line x1="248" y1="96" x2="256" y2="112" class="solid"></line><line x1="256" y1="112" x2="272" y2="112" class="solid"></line></g><g><path d="M 264,64 A 16,16 0,0,0 264,80" class="nofill"></path><line x1="264" y1="80" x2="272" y2="80" class="solid"></line></g><g><line x1="280" y1="80" x2="292" y2="80" class="solid"></line><line x1="292" y1="80" x2="292" y2="112" class="solid"></line><line x1="280" y1="112" x2="292" y2="112" class="solid"></line></g><g><path d="M 384,16 A 16,16 0,0,1 384,32" class="nofill"></path><path d="M 384,32 A 16,16 0,0,0 384,48" class="nofill"></path></g><g><line x1="392" y1="16" x2="400" y2="32" class="solid"></line><path d="M 392,32 A 16,16 0,0,0 392,48" class="nofill"></path><line x1="392" y1="48" x2="400" y2="48" class="solid"></line><path d="M 400,32 A 16,16 0,0,1 400,48" class="nofill"></path></g><g><path d="M 376,32 A 16,16 0,0,0 376,48" class="nofill"></path><line x1="376" y1="48" x2="384" y2="64" class="solid"></line><line x1="384" y1="64" x2="412" y2="64" class="solid"></line><line x1="384" y1="64" x2="376" y2="80" class="solid"></line><path d="M 372,64 A 12,12 0,0,0 372,80" class="nofill"></path><line x1="372" y1="80" x2="372" y2="88" class="solid"></line><line x1="372" y1="88" x2="384" y2="112" class="solid"></line><line x1="384" y1="112" x2="412" y2="112" class="solid"></line><line x1="392" y1="80" x2="412" y2="80" class="solid"></line><line x1="412" y1="64" x2="412" y2="80" class="solid"></line><path d="M 392,80 A 16,16 0,0,0 392,96" class="nofill"></path><line x1="392" y1="96" x2="412" y2="96" class="solid"></line><line x1="412" y1="96" x2="412" y2="112" class="solid"></line></g><g><path d="M 368,48 A 16,16 0,0,1 368,64" class="nofill"></path><path d="M 368,64 A 16,16 0,0,0 368,80" class="nofill"></path></g><g><path d="M 512,16 A 16,16 0,0,0 512,32" class="nofill"></path><line x1="512" y1="32" x2="520" y2="48" class="solid"></line><path d="M 512,48 A 16,16 0,0,0 512,64" class="nofill"></path><line x1="512" y1="64" x2="520" y2="64" class="solid"></line><path d="M 520,48 A 16,16 0,0,1 520,64" class="nofill"></path></g><g><path d="M 496,32 A 16,16 0,0,1 496,48" class="nofill"></path><line x1="496" y1="48" x2="488" y2="64" class="solid"></line><path d="M 488,64 A 16,16 0,0,0 488,80" class="nofill"></path><line x1="488" y1="80" x2="496" y2="80" class="solid"></line><path d="M 496,64 A 16,16 0,0,1 496,80" class="nofill"></path><line x1="488" y1="80" x2="480" y2="96" class="solid"></line><line x1="480" y1="96" x2="488" y2="112" class="solid"></line><line x1="488" y1="112" x2="512" y2="112" class="solid"></line><line x1="504" y1="96" x2="520" y2="96" class="solid"></line><line x1="512" y1="80" x2="520" y2="96" class="solid"></line><line x1="520" y1="96" x2="512" y2="112" class="solid"></line></g><g><path d="M 504,32 A 16,16 0,0,1 504,48" class="nofill"></path><path d="M 504,48 A 16,16 0,0,0 504,64" class="nofill"></path><path d="M 504,64 A 16,16 0,0,1 504,80" class="nofill"></path></g><g><path d="M 560,32 A 16,16 0,0,0 560,48" class="nofill"></path><line x1="560" y1="48" x2="568" y2="64" class="solid"></line><path d="M 560,64 A 16,16 0,0,0 560,80" class="nofill"></path><line x1="560" y1="80" x2="568" y2="80" class="solid"></line><path d="M 568,64 A 16,16 0,0,1 568,80" class="nofill"></path><line x1="544" y1="80" x2="536" y2="96" class="solid"></line><line x1="536" y1="96" x2="544" y2="112" class="solid"></line><line x1="552" y1="96" x2="564" y2="96" class="solid"></line><line x1="564" y1="80" x2="564" y2="112" class="solid"></line><line x1="544" y1="112" x2="564" y2="112" class="solid"></line></g><g><path d="M 552,48 A 16,16 0,0,1 552,64" class="nofill"></path><path d="M 552,64 A 16,16 0,0,0 552,80" class="nofill"></path></g></svg>